<svg width="450" height="89" viewBox="0 0 450 89" fill="none" xmlns="http://www.w3.org/2000/svg">
            <path fill-rule="evenodd" clip-rule="evenodd" d="M0 36.0204V45.1516L25 20.1516V11.0204L0 36.0204ZM0 65.1516V56.0204L25 31.0204V40.1516L0 65.1516ZM0 76.0204V80H5.15161L25 60.1516V51.0204L0 76.0204ZM25 80H16.0204L25 71.0204V80ZM25 0.15161V0H16.0204L0 16.0204V25.1516L25 0.15161ZM0 0H5.15161L0 5.15161V0ZM426.917 74.9878L445 49.006V5H55V74.9529C117.815 74.387 209.809 74.391 286.89 74.5402C326.48 74.6169 362.143 74.7318 387.909 74.8276C400.791 74.8755 411.2 74.9186 418.388 74.9498C421.982 74.9653 424.771 74.9779 426.661 74.9866L426.917 74.9878ZM50 74.9998V80C51.645 79.9839 53.3119 79.9683 55 79.9531C182.257 78.8058 429.52 80 429.52 80L450 50.5747V5V0H445H55H50V5V74.9998ZM100 45.4525L106.5 40.4856L100 35.5187V21L125.5 40.4856L100 59.9711V45.4525ZM202.552 24.416C200.952 23.456 199.128 22.976 197.08 22.976H178.552V56H189.16V45.344H197.08C199.128 45.344 200.952 44.88 202.552 43.952C204.152 42.992 205.4 41.68 206.296 40.016C207.192 38.352 207.64 36.496 207.64 34.448V33.824C207.64 31.776 207.192 29.936 206.296 28.304C205.4 26.64 204.152 25.344 202.552 24.416ZM193.528 37.616H189.16V30.8H193.528C194.648 30.8 195.48 31.088 196.024 31.664C196.6 32.208 196.888 32.992 196.888 34.016V34.4C196.888 35.392 196.6 36.176 196.024 36.752C195.48 37.328 194.648 37.616 193.528 37.616ZM228.121 22.976H217.513V56H245.065V47.552H228.121V22.976ZM274.584 51.344L275.976 56H287.208L275.16 22.976H262.824L250.776 56H261.624L263.016 51.344H274.584ZM272.376 43.952H265.224L268.728 32.192H268.92L272.376 43.952ZM301.337 56H311.945V43.184L324.858 22.976H313.289L306.953 33.968H306.762L300.426 22.976H288.233L301.337 43.184V56ZM38 86H166.253H430V87.2H166.253L160.607 89H38V87.2V86Z" fill="white"/>
            </svg>